<?xml version="1.0" encoding="UTF-8" standalone="no"?>
<!-- Created with Inkscape (http://www.inkscape.org/) -->

<svg
   xmlns:dc="http://purl.org/dc/elements/1.1/"
   xmlns:cc="http://creativecommons.org/ns#"
   xmlns:rdf="http://www.w3.org/1999/02/22-rdf-syntax-ns#"
   xmlns:svg="http://www.w3.org/2000/svg"
   xmlns="http://www.w3.org/2000/svg"
   xmlns:sodipodi="http://sodipodi.sourceforge.net/DTD/sodipodi-0.dtd"
   xmlns:inkscape="http://www.inkscape.org/namespaces/inkscape"
   version="1.1"
   width="640"
   height="640"
   id="svg4619"
   inkscape:version="0.48.2 r9819"
   sodipodi:docname="earth_logo.svg">
  <sodipodi:namedview
     pagecolor="#ffffff"
     bordercolor="#666666"
     borderopacity="1"
     objecttolerance="10"
     gridtolerance="10"
     guidetolerance="10"
     inkscape:pageopacity="0"
     inkscape:pageshadow="2"
     inkscape:window-width="1274"
     inkscape:window-height="1494"
     id="namedview810"
     showgrid="false"
     inkscape:zoom="0.23234063"
     inkscape:cx="645.43587"
     inkscape:cy="1955.6036"
     inkscape:window-x="940"
     inkscape:window-y="9"
     inkscape:window-maximized="0"
     inkscape:current-layer="layer1" />
  <defs
     id="defs4621" />
  <metadata
     id="metadata4624">
    <rdf:RDF>
      <cc:Work
         rdf:about="">
        <dc:format>image/svg+xml</dc:format>
        <dc:type
           rdf:resource="http://purl.org/dc/dcmitype/StillImage" />
        <dc:title />
      </cc:Work>
    </rdf:RDF>
  </metadata>
  <g
     transform="translate(275,-1696.3622)"
     id="layer1">
    <path
       d="m 44.999996,1696.3622 c -176.767996,0 -319.999996,143.232 -319.999996,320 0,176.768 143.232,320 319.999996,320 176.768014,0 320.000004,-143.232 320.000004,-320 0,-176.768 -143.23199,-320 -320.000004,-320 z m 0,31.2 c 32.9088,0 64.529924,5.4579 94.000634,15.5994 6.5613,11.2153 8.60417,25.7203 8.79874,38.4 -9.49121,31.2115 -42.68034,43.4726 -66.398734,61.6012 -11.8848,13.9188 -33.09696,46.93 -47.60064,17.6001 -13.61536,-18.153 1.62048,-37.2993 4.40064,-56 5.22624,-17.0279 15.30752,-41.8074 -8.80128,-49.6 -16.85504,-3.5853 -13.6832,-16.8858 -4.8,-26.8007 6.74816,-0.4736 13.53216,-0.7936 20.40064,-0.7936 z m -46.79936,3.6006 c -0.1792,0.6017 -0.128,1.3492 -0.3968,1.9994 -4.98944,8.2791 -6.35776,18.2054 -9.6,27.2 -1.41824,10.8903 -12.11136,16.8358 -21.99936,18.8007 -9.2288,4.2585 -20.24832,-4.0589 -13.60128,-13.6013 4.66688,-10.3565 17.8432,-8.3879 25.6,-14.7994 5.54752,-4.1587 5.0048,-10.2541 4.8,-16.3994 5.07904,-1.1135 10.02624,-2.3564 15.20128,-3.2 z m -127.999996,55.1988 c 13.32736,-0.4864 26.37824,3.4701 26.79936,16.8013 -9.49632,10.1951 -26.77632,38.0313 0.7936,25.6 19.043836,-13.2288 32.248316,10.3974 15.199996,23.5993 -17.395196,8.6477 -33.775356,26.761 -26.399996,47.5994 11.20768,19.1513 37.537276,12.4659 47.999996,-3.5994 4.62976,-23.328 30.78144,-22.9926 48.39936,-15.2 16.1088,14.6765 15.36128,41.2007 19.2,61.2007 -12.6912,15.5827 -34.63424,-23.2487 -39.59936,6.4 -8.256,19.7491 -32.23552,26.7443 -44,45.5987 -16.256,10.1376 -22.178556,29.8918 -28.799996,44.4006 -19.58656,-6.3065 -47.2064,-23.2845 -63.2,1.2032 -14.12992,20.5901 16.576,32.608 32,38.4 15.55072,7.7031 23.46112,30.4551 45.999356,23.1987 19.07072,7.0349 48.58112,-12.6694 58.00064,11.6007 3.19488,25.4592 33.49248,27.7222 52.8,35.6006 21.96096,2.2771 26.2528,23.3933 23.59936,41.6 1.1648,21.1661 -13.5552,36.1894 -24.39936,52.3994 -14.51648,16.078 -37.28,22.3667 -51.59936,39.2 -3.10528,2.3308 -6.69952,5.3363 -10.40128,8 22.76352,6.894 18.60352,5.6947 0,0 -17.38624,-5.8714 -33.87264,-13.4848 -49.6,-22.4 -57.767676,-41.8368 -47.869436,-27.3818 0,0 -0.4992,-13.9648 5.78176,-30.8826 2.80064,-44 -10.311676,-16.4007 -28.395516,-25.2852 -37.599996,-43.2 -7.57888,-22.496 13.22624,-44.6196 8,-68 -13.31328,-16.8551 -36.29824,-22.8903 -56.8,-25.6 -16.01152,-11.913 -25.78688,-29.8547 -43.59936,-38.4 -5.94176,-14.8506 -14.06208,-28.896 -19.2,-44 3.65184,-88.8359 47.31904,-167.5136 113.6,-218.0007 z m 64.798716,6.0006 c 3.85536,-0.1664 7.6544,1.4144 11.2,2.8007 9.71264,5.0239 25.39136,-6.88 31.20128,6.4 3.43296,10.7993 21.16736,10.7084 20.39936,22.7993 -0.9856,12.4941 -12.14848,19.2845 -20.8,26.4 -11.392,13.1635 -18.77248,-2.039 -12.8,-13.6 4.32,-11.4675 0.4224,-23.4893 -12,-26.8006 -3.8784,-11.9271 -17.15328,-12.5991 -25.99936,-5.1994 -14.77376,6.4333 -3.90784,-13.6665 4.8,-12 1.2672,-0.5504 2.71488,-0.7424 3.99872,-0.7936 z m 303.600634,14.4 c 1.75488,0.01 3.4317,0.128 5.19938,0.3968 55.35359,52.6195 90.00062,126.8147 90.00062,209.2007 0,23.639 -3.03999,46.4089 -8.40063,68.4006 -9.14047,-4.576 -18.25024,-18.199 -23.59936,-29.2006 -6.39617,-7.7901 -10.98753,-10.6215 -13.60001,-10.4 -5.7459,0.4864 -2.41537,15.7171 8.79999,25.2006 10.91713,16.9549 15.44195,36.0013 15.20002,55.1987 4.90497,-11.9872 9.12384,-24.4505 12.40064,-37.1993 -3.2768,12.7296 -7.49567,25.2134 -12.40064,37.1993 -20.54016,50.2016 -54.67392,93.4029 -97.99937,124.8 -15.59424,10.8582 -12.73472,8.8755 0,0 -1.9571,-1.7741 -3.77472,-4.0525 -5.60128,-7.1987 -13.14688,-30.4435 -18.80447,-63.1463 -29.19935,-94.0007 3.75425,-49.8854 -46.85953,-35.118 -78.39999,-35.9999 -41.907214,-15.9143 -5.854734,-64.3533 7.60062,-89.1994 -1.87007,-36.7194 31.38817,-58.1222 39.19874,-90.8006 -20.84609,-2.7994 -12.99585,-47.9527 3.60061,-16.3994 18.62402,7.5072 47.55458,-2.5702 67.60066,-10.8006 31.02974,-11.6903 18.7072,-75.0874 -7.60065,-32.8 -16.18816,38.4883 -55.91297,-2.1069 -25.99936,-24.8001 9.32738,-20.8972 30.53183,-41.6985 53.19936,-41.5999 z m -105.99935,33.6 c 2.39487,0 4.66944,0.832 6.79935,1.2032 2.76097,0.128 5.82274,1.0368 8.00002,2.7994 4.43392,2.4307 3.48925,8.4569 0,11.2 -3.80162,4.6924 -11.00802,3.671 -15.60064,0.7936 -4.95873,-2.0467 -8.49664,-8.2023 -5.59873,-13.1994 1.53216,-2.0582 3.99872,-2.8582 6.4,-2.8006 z m 134.39998,108.8 c -5.22238,0 -10.05566,2.8928 -9.20063,9.2007 1.58463,10.7417 -1.90208,27.5673 -16,25.9993 -15.45726,-1.9789 -17.70751,-21.3862 -30.79936,-26.4 -11.20256,1.3415 -21.79584,7.1232 -33.20062,8.4007 -12.54912,7.1283 -23.81313,17.2531 -32.00002,29.1993 7.29216,4.1063 16.15617,-1.431 23.60065,-2.8006 9.67808,-2.7648 26.24128,-2.7533 29.19935,9.2006 -2.01215,10.6343 1.01121,25.0547 14.79937,23.6007 16.39295,-1.1904 31.09249,-9.2186 47.20127,-12.0013 8.36864,-0.32 28.57856,-12.9907 16.00002,-19.5994 -13.4157,2.4333 -13.62433,-11.3651 -3.60064,-16.8 13.72671,0.3456 12.94462,-11.6326 5.59999,-20 -1.01121,-5.2454 -6.38208,-8.0192 -11.59938,-8 z"
       id="path5082"
       style="fill:#3498db;fill-opacity:1;fill-rule:nonzero;stroke:none;display:inline;enable-background:new"
       inkscape:connector-curvature="0" />
  </g>
</svg>
